<?xml version="1.0" standalone="no"?>
<!DOCTYPE svg PUBLIC "-//W3C//DTD SVG 20010904//EN"
 "http://www.w3.org/TR/2001/REC-SVG-20010904/DTD/svg10.dtd">
<svg version="1.0" xmlns="http://www.w3.org/2000/svg"
 width="602.000000pt" height="601.000000pt" viewBox="0 0 602.000000 601.000000"
 preserveAspectRatio="xMidYMid meet">

<g transform="translate(0.000000,601.000000) scale(0.100000,-0.100000)"
fill="#000000" stroke="none">
<path d="M0 5054 c0 -761 3 -954 12 -948 7 4 39 36 72 71 32 34 64 60 70 56 6
-3 8 -3 4 2 -4 4 10 27 32 51 38 42 42 56 20 89 -3 6 -19 44 -35 85 -16 41
-35 84 -42 95 -56 85 92 291 313 437 107 71 203 121 352 182 198 81 433 226
491 302 29 39 33 49 27 84 -5 32 -2 44 15 61 36 36 60 22 93 -56 17 -38 52
-116 78 -172 26 -56 48 -105 48 -109 0 -3 19 -46 42 -95 l41 -90 28 48 c15 27
35 62 45 78 43 76 131 188 212 270 49 50 95 95 103 100 104 77 164 114 253
155 58 28 109 50 114 50 5 0 27 8 48 17 22 9 44 18 49 19 6 1 48 12 95 24 271
70 623 81 840 25 30 -7 91 -23 135 -34 148 -37 287 -98 425 -186 92 -59 99
-65 215 -180 123 -123 139 -144 212 -272 32 -56 62 -103 66 -103 4 0 15 16 23
36 8 20 33 74 54 120 22 46 40 88 40 92 0 4 22 57 49 117 27 61 54 122 60 138
16 42 65 37 90 -10 8 -16 8 -28 0 -46 -9 -21 -6 -32 23 -76 18 -28 40 -53 49
-56 8 -3 35 -24 59 -47 24 -24 40 -36 35 -28 -5 8 4 5 21 -7 40 -29 278 -150
323 -164 20 -7 38 -15 41 -18 7 -9 64 -35 73 -33 4 1 7 -3 7 -9 0 -5 4 -8 9
-5 5 4 11 2 13 -4 2 -6 13 -12 24 -14 24 -5 187 -97 192 -108 2 -5 9 -8 16 -8
6 0 18 -9 26 -19 7 -11 17 -18 20 -16 12 7 163 -129 198 -178 38 -53 71 -124
72 -150 0 -10 -22 -71 -49 -135 -72 -171 -73 -151 8 -236 l71 -75 0 920 0 919
-3010 0 -3010 0 0 -956z"/>
<path d="M2847 5830 c-94 -12 -151 -25 -317 -71 -251 -70 -460 -205 -640 -414
-128 -148 -255 -428 -294 -645 -23 -136 -31 -651 -11 -818 32 -273 126 -471
268 -565 69 -46 212 -107 250 -107 28 0 87 -46 87 -69 0 -46 -242 22 -357 100
-95 66 -170 154 -223 263 -28 56 -55 125 -62 154 -11 43 -16 52 -35 52 -38 0
-314 -99 -418 -149 -142 -70 -232 -136 -268 -195 -27 -43 -29 -51 -17 -70 89
-139 105 -181 89 -238 -22 -81 -176 -212 -298 -255 -74 -26 -70 -28 -117 70
-30 61 -46 74 -39 30 2 -16 7 -77 10 -138 15 -282 85 -582 199 -860 38 -90
127 -265 172 -337 13 -21 24 -40 24 -43 0 -7 169 -244 200 -279 14 -17 60 -69
102 -117 42 -47 74 -90 70 -94 -4 -5 -1 -5 6 -1 8 5 40 -19 90 -65 82 -77 293
-238 403 -306 179 -112 539 -259 754 -309 144 -33 420 -64 565 -64 160 0 440
26 535 49 236 58 416 121 584 206 240 119 337 181 516 326 220 178 421 402
562 624 254 403 402 865 419 1309 l6 141 -47 -82 c-25 -46 -51 -83 -56 -83
-24 0 -211 104 -252 140 -64 56 -107 128 -107 176 0 46 26 104 69 158 44 55
41 86 -14 145 -49 52 -149 123 -230 163 -110 55 -454 163 -460 145 -2 -7 -11
-39 -20 -72 -38 -139 -122 -273 -225 -359 -63 -52 -189 -110 -294 -136 -101
-24 -120 -18 -88 27 17 24 36 33 107 51 239 59 378 219 440 507 21 97 28 165
35 350 21 514 -9 734 -136 1000 -28 60 -117 210 -134 225 -3 3 -22 26 -43 53
-141 174 -386 333 -637 412 -136 42 -296 65 -485 70 -93 2 -200 0 -238 -5z
m-27 -501 c80 -28 120 -80 120 -157 0 -78 -25 -154 -74 -219 -96 -130 -189
-186 -375 -229 -304 -69 -455 8 -455 231 0 66 5 88 26 130 42 81 114 139 224
181 68 25 199 59 289 74 63 11 199 5 245 -11z m720 7 c112 -14 243 -48 325
-85 58 -27 142 -106 171 -162 20 -40 24 -63 24 -133 0 -72 -4 -91 -28 -137
-58 -112 -173 -144 -384 -108 -185 32 -262 66 -357 160 -55 56 -125 179 -137
246 -15 82 21 164 88 199 66 34 137 39 298 20z m-446 -85 c-11 -46 -11 -148
-1 -183 7 -28 7 -28 -43 -28 -48 0 -50 1 -45 23 10 37 11 118 2 175 -7 49 -6
53 15 61 13 5 35 4 51 -2 27 -9 28 -12 21 -46z m-1104 -406 c0 -121 -1 -126
-22 -134 -32 -12 -40 15 -36 121 3 75 6 90 27 112 14 14 26 26 28 26 2 0 3
-56 3 -125z m2181 58 c11 -35 4 -213 -10 -213 -3 0 -16 8 -28 18 -20 16 -21
23 -16 140 6 118 6 122 24 106 10 -9 23 -32 30 -51z m-2363 -95 c-4 -29 -7
-82 -6 -117 1 -54 -2 -67 -20 -80 -11 -9 -35 -27 -53 -41 -51 -40 -53 -39 -46
43 7 93 32 152 88 205 24 23 44 42 45 42 0 0 -3 -24 -8 -52z m2532 2 c47 -33
83 -120 88 -211 3 -44 2 -79 -1 -79 -3 0 -33 23 -66 50 l-61 51 0 104 c0 58 3
105 6 105 3 0 19 -9 34 -20z m-930 -171 c63 -5 138 -13 165 -18 28 -5 77 -14
109 -20 33 -6 103 -24 155 -41 265 -85 373 -186 437 -408 22 -74 14 -324 -16
-527 -29 -202 -27 -195 -57 -195 l-26 0 7 108 c4 59 12 141 18 182 18 126 15
334 -6 415 -25 94 -67 175 -111 214 -119 104 -451 179 -920 207 -211 12 -560
-24 -858 -90 -125 -28 -170 -43 -215 -70 -148 -90 -197 -204 -193 -456 1 -133
13 -323 26 -445 7 -59 -5 -86 -32 -69 -39 24 -86 512 -64 665 6 42 22 113 36
159 23 72 34 89 84 139 76 75 184 130 341 173 168 47 281 68 462 84 160 14
443 11 658 -7z m-258 -195 l66 -7 -29 -24 c-16 -14 -29 -28 -29 -33 0 -4 23
-11 52 -14 37 -5 53 -4 59 6 12 19 11 22 -11 46 l-21 22 53 0 c29 -1 80 -6
113 -13 l59 -13 -54 -28 c-29 -15 -59 -33 -65 -39 -6 -7 -27 -26 -46 -42 -19
-17 -41 -39 -49 -49 -15 -19 -14 -19 17 -2 18 9 56 30 84 47 45 26 60 30 118
28 86 -2 111 6 111 37 0 29 15 30 91 8 61 -18 133 -53 167 -81 23 -18 24 -19
5 -42 l-19 -23 -55 31 c-60 33 -106 43 -79 17 22 -22 132 -86 147 -86 7 0 23
11 35 25 12 14 25 25 30 25 4 0 22 -28 40 -62 31 -61 32 -68 39 -228 5 -121
13 -185 28 -240 54 -190 52 -229 -19 -300 -59 -59 -101 -68 -214 -45 -105 20
-122 18 -189 -25 -53 -33 -86 -91 -87 -147 0 -35 8 -41 28 -21 9 9 12 5 12
-20 0 -23 -5 -32 -17 -32 -9 0 -24 -7 -33 -15 -16 -14 -20 -14 -47 1 -29 17
-42 16 -74 -8 -13 -9 -22 -7 -43 10 -23 17 -32 19 -57 10 -16 -5 -34 -19 -39
-29 -10 -18 -11 -18 -31 2 -46 46 -108 43 -130 -5 l-12 -25 -31 34 c-20 21
-39 32 -52 30 -10 -2 -25 -4 -32 -4 -7 -1 -20 -10 -29 -20 -16 -19 -17 -19
-54 0 -46 23 -67 24 -90 3 -17 -15 -20 -15 -45 5 l-26 21 -30 -21 c-28 -20
-30 -20 -48 -4 -11 10 -28 15 -40 12 -18 -5 -20 0 -20 35 0 40 0 41 20 23 18
-17 20 -17 26 -1 20 53 -69 174 -146 197 -32 10 -54 9 -123 -6 -72 -15 -92
-16 -136 -5 -57 14 -104 47 -126 91 -22 41 -18 113 11 220 20 74 27 130 33
259 7 148 10 171 33 220 14 30 33 64 41 75 14 18 17 18 29 4 7 -8 24 -22 38
-30 24 -14 29 -12 102 38 62 41 74 53 59 58 -12 3 -42 -8 -82 -31 -59 -35 -63
-36 -76 -19 -22 31 -15 43 35 69 50 25 159 61 180 59 6 0 12 3 12 8 0 5 5 9
11 9 6 0 8 -8 4 -19 -11 -35 26 -49 118 -44 l82 5 83 -51 c45 -27 82 -46 82
-41 0 4 -28 34 -62 65 -56 51 -102 79 -163 101 -15 5 -6 9 35 16 154 25 343
34 472 22z m-1537 -1184 c9 -15 -14 -41 -29 -33 -6 3 -8 3 -4 -2 9 -10 -19
-50 -101 -145 -77 -89 -171 -232 -253 -384 -33 -61 -61 -112 -62 -114 -6 -6
-46 37 -46 50 0 18 81 173 140 267 80 129 148 215 232 293 79 74 109 90 123
68z m724 -74 c22 -60 46 -149 57 -216 7 -45 7 -45 16 -15 5 17 6 80 2 140 -4
61 -4 108 -1 105 3 -3 17 -67 32 -143 30 -156 45 -206 81 -260 27 -41 60 -59
85 -46 11 6 23 -1 42 -22 21 -25 33 -30 60 -28 25 2 43 -4 66 -24 35 -29 61
-34 90 -15 16 10 24 7 51 -15 37 -32 64 -34 104 -8 29 19 30 19 54 0 34 -26
75 -24 110 6 26 21 33 23 59 13 27 -10 34 -8 67 17 29 22 47 28 77 27 30 -2
43 2 61 23 14 17 32 25 53 25 62 0 112 84 141 238 9 48 24 114 33 147 l17 60
-3 -140 c-5 -168 6 -164 42 16 26 125 49 182 77 187 14 3 13 -6 -7 -55 -21
-50 -25 -85 -33 -254 -9 -179 -12 -200 -36 -250 -31 -67 -84 -130 -142 -170
-67 -46 -364 -195 -424 -213 -133 -40 -226 -16 -490 126 -303 163 -350 229
-350 492 0 123 -10 190 -46 305 -6 21 -5 22 14 12 11 -6 30 -35 41 -65z m2196
64 c39 -15 93 -63 171 -155 93 -108 173 -234 261 -413 25 -51 25 -53 8 -72
-10 -11 -22 -20 -26 -20 -5 0 -21 24 -35 53 -40 79 -142 245 -186 305 -21 29
-36 57 -32 64 4 6 3 8 -4 5 -5 -4 -25 12 -44 34 -18 23 -40 49 -49 58 -9 9
-39 44 -67 77 -59 72 -58 87 3 64z m-2831 -113 c-16 -20 -45 -54 -64 -77 -19
-24 -42 -50 -51 -59 -38 -39 -173 -247 -241 -373 l-74 -136 -27 16 c-31 19
-31 24 20 127 48 97 127 227 188 310 28 39 58 83 68 98 10 16 50 62 89 103
l72 75 24 -25 25 -25 -29 -34z m2841 -47 c11 -14 26 -32 33 -40 88 -103 161
-218 254 -399 48 -95 56 -116 44 -123 -8 -5 -22 -15 -30 -24 -14 -13 -18 -9
-43 38 -15 29 -33 64 -39 78 -19 41 -134 231 -173 285 -20 28 -77 98 -127 156
l-92 107 26 20 27 20 50 -47 c28 -25 59 -57 70 -71z m-1708 -22 c20 -19 23
-31 23 -96 0 -72 -1 -74 -22 -68 -13 3 -36 6 -52 6 l-28 0 7 73 c6 63 24 107
43 107 3 0 16 -10 29 -22z m326 5 c20 -24 36 -88 34 -138 l-2 -40 -64 -3 -63
-3 7 73 c7 73 18 106 39 120 18 12 32 9 49 -9z m161 -17 c19 -41 22 -146 4
-146 -7 0 -30 -3 -50 -6 l-38 -7 0 61 c0 118 48 174 84 98z m-720 8 c3 -9 6
-36 6 -60 0 -40 -2 -44 -24 -44 -13 0 -27 7 -30 16 -8 21 -8 89 1 97 12 13 41
7 47 -9z m114 -9 c7 -14 12 -51 12 -81 0 -51 -2 -55 -20 -50 -11 3 -29 9 -40
12 -17 4 -20 14 -20 59 0 29 3 60 6 69 10 26 49 19 62 -9z m291 3 c8 -13 16
-56 19 -95 l5 -73 -39 0 c-83 0 -86 4 -82 85 2 41 9 79 17 89 20 24 63 20 80
-6z m429 10 c6 -7 12 -38 13 -68 3 -50 1 -56 -21 -67 -50 -25 -57 -19 -52 50
2 34 9 70 14 80 10 20 31 22 46 5z m106 -4 c17 -44 -7 -116 -32 -100 -13 8
-16 73 -6 100 3 9 12 16 19 16 7 0 16 -7 19 -16z m-1776 -11 c15 -9 29 -18 30
-19 8 -5 -34 -53 -46 -54 -10 0 -45 18 -71 37 -6 4 41 53 51 53 5 0 21 -8 36
-17z m2646 -15 c22 -30 21 -31 -22 -56 l-39 -22 -24 26 -24 26 30 24 c37 30
59 30 79 2z m-2368 -99 c74 -56 134 -105 134 -109 0 -4 -23 -26 -50 -49 -69
-58 -141 -150 -272 -348 -37 -57 -73 -103 -78 -103 -8 0 -230 160 -260 187 -2
2 2 8 10 13 8 6 11 10 7 10 -16 0 138 250 154 250 5 0 9 5 9 11 0 20 191 239
209 239 2 0 64 -46 137 -101z m2225 24 c36 -38 87 -94 113 -126 59 -71 208
-306 201 -318 -3 -4 -58 -47 -123 -95 -64 -48 -122 -91 -129 -96 -8 -6 -43 38
-116 149 -107 162 -179 253 -226 287 -14 10 -36 31 -48 45 l-21 27 69 52 c38
29 73 52 78 52 5 0 11 3 13 8 5 12 101 82 112 82 7 0 41 -30 77 -67z m-2541
-19 c0 -20 -17 -17 -57 7 -26 16 -31 24 -23 34 9 11 18 10 46 -7 19 -11 34
-26 34 -34z m2738 28 c4 -13 -57 -54 -73 -49 -19 7 -10 27 20 46 32 21 46 22
53 3z m-1881 -58 c36 -10 44 -124 9 -124 -22 0 -33 22 -41 78 -7 53 -5 56 32
46z m960 -50 c-8 -73 -57 -102 -57 -34 0 47 17 80 41 80 20 0 21 -4 16 -46z
m-820 12 c2 -1 5 -95 4 -118 -1 -12 -9 -18 -25 -18 -19 0 -27 9 -40 40 -9 22
-16 56 -16 76 l0 35 38 -7 c20 -4 38 -7 39 -8z m723 -35 c0 -47 -18 -101 -34
-101 -24 0 -36 25 -36 75 0 60 3 65 42 65 26 0 28 -3 28 -39z m-591 20 c11 -7
13 -26 9 -81 -6 -78 -15 -95 -46 -86 -26 9 -48 58 -55 124 l-6 52 42 0 c23 0
48 -4 56 -9z m479 -51 c-3 -39 -11 -70 -24 -87 -41 -55 -60 -39 -71 59 -10 86
-11 85 61 87 l38 1 -4 -60z m-320 35 c16 -5 16 -114 1 -149 -21 -45 -67 -45
-87 0 -7 13 -15 56 -18 93 l-7 69 49 -5 c27 -2 55 -6 62 -8z m182 -12 c0 -52
-22 -139 -39 -156 -42 -42 -85 15 -83 112 0 52 11 61 75 61 38 0 47 -3 47 -17z
m813 -288 c1 -12 -314 -225 -412 -277 -56 -30 -70 -35 -75 -23 -4 11 29 38
112 93 191 129 301 194 314 186 6 -4 8 -3 4 4 -7 12 22 33 42 29 7 -1 14 -6
15 -12z m-1809 -37 c69 -41 378 -237 384 -243 2 -2 -1 -13 -8 -24 -10 -20 -12
-20 -35 -5 -14 9 -22 21 -18 27 3 6 1 7 -5 3 -13 -8 -238 141 -234 155 1 6 -2
8 -7 5 -12 -8 -137 72 -133 86 1 5 -2 7 -7 3 -11 -6 -51 15 -51 27 0 19 50 4
114 -34z m-592 -163 c37 -27 85 -63 108 -78 40 -28 48 -50 32 -88 -6 -14 -34
3 -154 90 -81 58 -148 111 -148 116 0 6 7 21 16 33 l15 22 32 -22 c18 -12 62
-45 99 -73z m3034 64 c8 -17 12 -35 7 -39 -31 -26 -286 -211 -288 -208 -2 2
-6 19 -10 39 l-6 35 107 80 c113 83 168 123 171 124 1 0 10 -14 19 -31z
m-2571 -44 c17 -12 109 -75 205 -140 250 -169 280 -193 280 -222 0 -17 -4 -22
-12 -17 -34 20 -283 199 -286 206 -2 5 -8 8 -13 8 -4 0 -64 39 -131 87 -68 48
-124 88 -126 89 -1 0 0 8 4 17 7 19 25 12 79 -28z m2040 35 c4 -6 1 -18 -6
-26 -13 -16 -262 -190 -266 -187 -2 2 -13 -8 -27 -20 -39 -36 -252 -187 -264
-187 -19 0 5 50 35 74 54 42 506 356 514 356 4 0 11 -5 14 -10z m-1861 -52
c-4 -7 -3 -8 4 -4 6 4 61 -26 121 -66 97 -65 108 -75 96 -91 -7 -9 -15 -17
-18 -17 -7 0 -109 67 -194 127 -55 39 -61 46 -51 63 9 14 16 16 30 9 10 -6 15
-15 12 -21z m1641 15 c12 -16 1 -27 -98 -100 -62 -45 -118 -81 -124 -78 -7 2
-12 1 -12 -3 4 -23 -4 -24 -20 -2 l-19 24 111 74 c62 40 119 80 127 88 18 18
20 18 35 -3z m-864 -151 c16 -18 29 -40 29 -50 1 -10 7 -3 15 15 8 18 29 42
47 53 30 19 46 20 171 18 l139 -3 29 -33 29 -32 0 -253 c0 -220 -2 -256 -18
-286 -29 -58 -61 -74 -156 -79 -158 -8 -228 19 -242 95 l-7 36 -21 -43 c-36
-76 -59 -85 -200 -85 -99 0 -127 3 -149 18 -32 21 -52 58 -62 115 l-7 42 75 0
c68 0 76 -2 90 -24 16 -24 83 -45 97 -29 4 4 11 39 15 76 l7 69 -34 -9 c-53
-13 -150 -8 -187 11 -54 28 -65 69 -57 215 4 68 11 132 17 143 6 10 25 28 42
39 29 18 47 19 170 17 l139 -3 29 -33z m-1794 16 c6 -7 36 -73 67 -146 46
-107 57 -140 52 -167 -15 -78 -92 -128 -199 -130 l-68 -1 -74 -74 c-41 -41
-76 -72 -78 -69 -15 17 -57 98 -57 110 0 8 27 44 60 82 61 69 62 74 34 125 0
1 -33 -11 -72 -28 -39 -16 -77 -28 -84 -25 -16 6 -70 114 -63 125 3 5 22 14
42 21 20 6 120 51 222 100 102 48 191 88 197 89 6 0 16 -6 21 -12z m3621 -108
c40 -24 40 -39 2 -107 -16 -29 -30 -57 -30 -62 0 -5 16 -18 35 -30 l35 -20 35
69 c19 39 38 70 41 70 14 0 94 -53 94 -62 0 -6 -14 -35 -31 -65 -34 -60 -31
-73 23 -92 l30 -11 36 80 c39 86 49 92 102 65 44 -23 39 -49 -32 -191 -49 -97
-67 -124 -83 -124 -19 0 -429 210 -449 230 -18 17 120 270 146 270 7 0 28 -9
46 -20z m-2224 -310 c-32 -34 -78 -60 -141 -80 l-41 -13 48 -24 c58 -29 107
-95 114 -157 3 -22 7 -52 9 -66 3 -24 4 -24 18 9 l15 34 29 -25 29 -26 -44
-58 c-57 -73 -159 -157 -209 -172 -47 -14 -141 -16 -141 -2 0 5 -6 7 -13 4
-21 -8 -112 42 -142 78 -51 60 -67 111 -63 197 3 71 2 76 -17 75 -11 -1 -27
-4 -35 -8 -9 -4 -20 2 -28 15 -16 26 -17 25 110 135 l99 87 47 -26 c27 -14 67
-29 89 -33 59 -9 178 20 233 56 58 38 71 38 34 0z m1059 -52 c71 -1 118 13
155 46 l23 21 60 -62 c32 -33 59 -59 59 -56 0 2 25 -17 55 -42 30 -26 55 -53
55 -61 0 -18 -36 -27 -59 -15 -29 16 -36 -2 -36 -89 -1 -126 -61 -218 -170
-259 -113 -42 -222 -17 -300 71 -110 123 -127 148 -115 163 19 22 35 18 50
-12 14 -27 14 -26 20 37 10 101 47 157 132 194 53 24 53 24 23 31 -88 19 -145
51 -145 80 0 10 17 6 64 -16 49 -23 79 -30 129 -31z m-2214 6 c23 -26 41 -50
41 -53 -1 -10 -402 -296 -416 -296 -11 0 -98 105 -91 111 35 31 403 284 412
284 7 0 32 -21 54 -46z m3267 -19 l34 -26 -22 -40 c-32 -58 -43 -64 -83 -52
-38 12 -69 -2 -78 -36 -6 -26 2 -36 102 -119 92 -78 110 -86 140 -65 36 25 43
48 22 74 -18 22 -21 23 -46 9 -24 -13 -30 -12 -63 7 -20 11 -38 25 -40 31 -4
12 105 142 119 142 5 0 44 -23 85 -51 93 -63 112 -96 94 -171 -16 -66 -77
-141 -140 -173 -77 -39 -102 -34 -205 40 -191 137 -235 200 -201 289 19 49 94
134 141 160 40 22 97 14 141 -19z m-3027 -264 c33 -41 36 -49 36 -111 0 -63
-2 -70 -39 -116 -60 -75 -138 -154 -168 -170 -15 -8 -42 -14 -60 -14 -72 0
-101 17 -201 118 l-98 99 188 182 188 183 59 -64 c32 -34 75 -83 95 -107z
m2843 -184 l171 -191 -49 -43 c-27 -23 -57 -45 -66 -48 -10 -4 -65 19 -135 56
-130 69 -129 72 -21 -58 31 -38 58 -73 60 -79 2 -6 -19 -30 -46 -53 l-50 -43
-25 30 c-204 241 -321 382 -321 386 0 3 23 24 51 46 63 50 87 50 163 5 88 -54
139 -78 130 -63 -4 7 -29 36 -55 63 -26 28 -58 63 -70 79 l-23 29 48 44 c26
23 52 40 57 37 5 -3 86 -91 181 -197z m-2558 -34 c67 -42 125 -80 130 -84 8
-7 -49 -109 -61 -109 -3 0 -39 21 -80 47 l-75 46 -19 -24 c-10 -13 -19 -27
-19 -30 0 -4 25 -25 55 -48 30 -23 55 -46 55 -52 0 -20 -34 -69 -52 -75 -10
-3 -40 10 -74 31 -45 29 -59 34 -66 23 -18 -27 -30 -50 -26 -52 2 -2 31 -22
65 -44 34 -23 64 -46 68 -52 8 -13 -45 -90 -63 -90 -27 0 -252 151 -252 169 0
10 36 71 81 137 44 65 106 156 136 202 31 45 61 82 66 82 6 0 64 -35 131 -77z
m648 11 c-11 -19 -158 -124 -174 -124 -7 0 -21 7 -31 14 -16 12 -10 18 61 60
43 25 90 57 103 69 21 20 26 22 36 9 7 -8 9 -21 5 -28z m854 15 c10 -11 51
-41 92 -66 l74 -46 -23 -18 c-22 -17 -24 -16 -93 33 -39 28 -79 55 -88 61 -21
14 -23 28 -6 45 16 16 22 15 44 -9z m506 -151 c18 -24 83 -96 145 -161 62 -64
125 -135 140 -158 25 -39 26 -40 7 -55 -10 -8 -38 -24 -62 -35 l-42 -20 -29
32 -30 32 -56 -24 c-55 -24 -56 -24 -54 -64 3 -62 2 -63 -52 -91 -43 -21 -54
-23 -64 -12 -21 21 -105 497 -93 523 11 24 100 73 135 74 14 1 33 -14 55 -41z
m-287 -140 c4 -24 25 -137 46 -252 22 -115 38 -210 37 -211 -2 -1 -30 -9 -63
-18 -47 -12 -63 -13 -72 -4 -7 7 -20 51 -29 97 -10 47 -18 87 -20 88 -1 2 -28
-2 -58 -9 -64 -14 -63 -10 -41 -125 18 -97 12 -106 -72 -108 l-58 -1 -54 248
c-29 136 -51 250 -49 253 12 12 143 33 148 23 4 -5 12 -45 19 -89 8 -44 16
-82 20 -84 14 -9 121 17 121 29 0 7 -7 48 -16 90 -9 43 -12 81 -7 86 10 10 77
27 115 28 23 1 27 -4 33 -41z m-1184 2 c61 -18 69 -24 69 -45 0 -20 -39 -171
-66 -257 -3 -12 5 -19 31 -28 30 -10 35 -15 29 -33 -17 -57 -29 -72 -64 -77
-28 -4 -36 -11 -44 -37 -10 -38 -12 -38 -83 -16 -59 18 -58 17 -37 89 5 19 -3
23 -100 49 -119 31 -120 33 -88 111 12 28 44 65 102 115 94 83 173 148 179
149 2 0 35 -9 72 -20z m644 -70 c40 -25 74 -86 75 -132 l0 -28 -73 0 -73 0
-13 35 c-10 29 -17 35 -41 35 -53 0 -60 -19 -60 -151 0 -136 7 -159 50 -159
24 0 35 8 56 41 24 39 28 41 62 35 21 -3 48 -6 61 -6 22 0 23 -3 17 -42 -10
-61 -47 -113 -93 -129 -62 -21 -153 -16 -208 12 -83 41 -88 53 -89 236 0 167
6 194 52 236 58 52 205 61 277 17z"/>
<path d="M2540 5265 c-115 -13 -288 -68 -352 -110 -42 -28 -83 -93 -92 -146
-9 -51 11 -131 44 -181 16 -23 26 -46 23 -52 -3 -5 -1 -6 4 -3 6 4 28 0 49 -9
69 -29 299 -2 393 46 21 10 42 16 46 12 5 -4 5 -2 2 4 -3 6 11 23 31 39 91 69
172 198 172 274 0 62 -17 90 -69 118 -50 26 -88 28 -251 8z"/>
<path d="M3330 5273 c-62 -10 -80 -24 -95 -76 -19 -63 -19 -71 0 -136 20 -65
125 -180 199 -218 131 -66 171 -76 322 -77 l140 -1 36 30 c67 58 95 207 53
290 -39 77 -176 143 -376 179 -79 15 -218 19 -279 9z"/>
<path d="M2842 4418 c-7 -7 -12 -21 -12 -31 0 -15 5 -18 23 -13 12 3 34 6 50
6 27 0 27 0 11 25 -17 27 -52 33 -72 13z"/>
<path d="M3009 4408 c-22 -40 10 -168 41 -168 15 0 47 64 54 106 4 32 2 45
-15 62 -26 28 -65 28 -80 0z"/>
<path d="M2535 4259 c-116 -15 -215 -90 -272 -207 -35 -70 -38 -82 -38 -161 1
-108 26 -176 94 -252 147 -165 386 -168 537 -7 25 27 57 74 72 106 23 49 27
70 27 152 0 88 -3 101 -33 162 -74 150 -222 229 -387 207z m108 -361 c15 -23
0 -63 -28 -76 -33 -15 -73 2 -82 36 -7 30 5 53 38 69 26 13 53 2 72 -29z"/>
<path d="M3459 4260 c-112 -19 -217 -98 -272 -205 -30 -56 -32 -67 -32 -165 0
-98 2 -109 32 -165 152 -292 544 -277 673 25 18 43 24 74 24 140 0 75 -4 93
-31 151 -39 85 -88 138 -160 177 -47 25 -158 56 -182 51 -3 -1 -27 -5 -52 -9z
m97 -345 c54 -54 -19 -132 -79 -84 -32 25 -34 57 -7 87 27 29 55 28 86 -3z"/>
<path d="M3012 4163 c-22 -9 -33 -52 -21 -76 16 -30 28 -37 65 -37 55 0 81 52
48 98 -15 21 -58 29 -92 15z"/>
<path d="M3033 3989 c-17 -6 -23 -16 -23 -38 0 -41 32 -59 66 -36 50 33 14 95
-43 74z"/>
<path d="M3012 3838 c-6 -6 -12 -17 -12 -23 0 -21 38 -47 62 -43 19 2 23 9 23
38 0 32 -3 35 -30 38 -17 2 -36 -3 -43 -10z"/>
<path d="M2166 3714 c-9 -24 -7 -62 4 -69 5 -3 21 -3 35 1 43 11 30 84 -16 84
-9 0 -20 -7 -23 -16z"/>
<path d="M3018 3678 c-123 -192 -153 -268 -128 -328 28 -69 98 -57 155 25 13
19 14 19 24 -7 11 -30 64 -68 94 -68 25 0 57 58 57 103 0 50 -14 80 -98 215
l-70 114 -34 -54z"/>
<path d="M3892 3703 c-17 -19 -20 -29 -12 -44 12 -21 40 -25 58 -7 18 18 15
56 -6 67 -13 7 -23 4 -40 -16z"/>
<path d="M2246 3604 c-10 -26 -7 -51 9 -64 32 -26 63 38 33 68 -17 17 -35 15
-42 -4z"/>
<path d="M3822 3608 c-17 -17 -15 -67 4 -75 26 -10 50 22 38 54 -11 31 -25 38
-42 21z"/>
<path d="M2138 3549 c-27 -15 -23 -65 7 -94 26 -27 66 -33 83 -12 19 23 -4 85
-38 102 -34 17 -30 17 -52 4z"/>
<path d="M3908 3543 c-57 -66 -48 -125 16 -109 36 9 56 33 56 70 0 53 -41 75
-72 39z"/>
<path d="M2697 3462 c-21 -23 -22 -46 -2 -62 12 -10 20 -9 40 4 28 18 31 33
11 59 -17 22 -29 22 -49 -1z"/>
<path d="M3358 3464 c-13 -13 -14 -21 -5 -41 11 -24 48 -40 66 -28 17 10 13
50 -7 68 -23 21 -33 21 -54 1z"/>
<path d="M2491 3441 c-35 -23 49 -62 98 -46 25 8 28 40 5 49 -23 9 -87 7 -103
-3z"/>
<path d="M3512 3438 c-20 -20 -14 -36 19 -43 39 -9 91 12 87 34 -4 20 -87 28
-106 9z"/>
<path d="M2774 3343 c-8 -32 6 -58 32 -58 25 0 30 30 10 60 -21 32 -34 32 -42
-2z"/>
<path d="M3291 3344 c-25 -32 -24 -57 2 -62 40 -8 60 36 33 71 -13 17 -15 16
-35 -9z"/>
<path d="M2672 3313 c4 -34 48 -48 48 -16 0 22 -18 43 -38 43 -9 0 -12 -9 -10
-27z"/>
<path d="M3401 3327 c-15 -15 -14 -47 2 -47 16 0 37 20 37 36 0 17 -26 24 -39
11z"/>
<path d="M3025 3247 c-14 -19 -13 -23 4 -41 19 -18 21 -18 45 -2 30 19 32 29
10 47 -25 20 -43 19 -59 -4z"/>
<path d="M2663 3213 c-4 -10 2 -23 16 -35 26 -20 39 -22 61 -8 13 9 10 14 -15
35 -35 29 -53 31 -62 8z"/>
<path d="M2887 3223 c-14 -13 -7 -43 12 -53 28 -14 51 -12 58 5 11 30 -48 71
-70 48z"/>
<path d="M3171 3216 c-16 -19 -10 -50 10 -54 21 -4 51 26 47 47 -4 21 -41 26
-57 7z"/>
<path d="M3393 3218 c-32 -15 -37 -37 -10 -47 27 -11 62 9 62 35 0 22 -21 27
-52 12z"/>
<path d="M2402 2818 c-25 -25 -9 -87 32 -120 33 -27 56 -23 56 10 0 85 -50
148 -88 110z"/>
<path d="M3642 2788 c-47 -51 -46 -108 3 -108 28 0 65 43 65 76 0 57 -30 71
-68 32z"/>
<path d="M2563 2635 l-28 -23 23 -25 c13 -13 41 -32 62 -42 32 -15 42 -15 55
-5 16 14 21 35 5 25 -5 -3 -7 0 -5 7 6 15 -41 71 -67 81 -11 4 -28 -3 -45 -18z"/>
<path d="M3467 2618 c-21 -19 -38 -44 -40 -58 -2 -22 2 -25 30 -24 47 2 93 39
93 74 0 25 -15 40 -39 40 -4 0 -24 -15 -44 -32z"/>
<path d="M2756 2597 c-27 -20 -14 -62 27 -87 39 -24 63 -25 71 -4 23 60 -49
127 -98 91z"/>
<path d="M3274 2585 c-35 -35 -31 -89 7 -93 30 -3 89 48 89 77 0 45 -57 55
-96 16z"/>
<path d="M3031 2558 c-68 -25 -68 -130 0 -158 38 -16 57 -7 74 34 31 73 -13
147 -74 124z"/>
<path d="M2856 2454 c-9 -8 -16 -20 -16 -25 0 -17 42 -51 56 -45 9 3 12 1 9
-4 -3 -6 -2 -10 4 -10 15 0 32 36 25 55 -4 8 -19 22 -35 30 -24 13 -30 13 -43
-1z"/>
<path d="M3185 2440 c-23 -24 -26 -32 -15 -45 7 -8 22 -15 33 -15 25 0 70 48
63 67 -3 8 -6 17 -6 19 0 2 -10 4 -23 4 -13 0 -36 -13 -52 -30z"/>
<path d="M1722 2760 c-73 -45 -67 -162 9 -189 53 -18 79 -13 115 23 26 26 34
42 34 70 0 50 -18 83 -55 101 -43 20 -63 19 -103 -5z"/>
<path d="M4283 2770 c-57 -23 -83 -129 -40 -167 60 -55 116 -54 167 4 27 31
31 41 25 72 -15 83 -78 121 -152 91z"/>
<path d="M2799 2103 c-5 -15 -9 -54 -7 -87 3 -52 6 -62 27 -72 30 -15 78 0 87
28 3 11 3 49 -1 83 -5 53 -10 64 -28 69 -46 12 -67 7 -78 -21z"/>
<path d="M3231 2112 c-6 -11 -11 -50 -11 -86 0 -58 3 -67 24 -81 29 -20 73 -6
85 27 8 20 4 138 -4 146 -2 2 -21 6 -43 9 -33 4 -42 2 -51 -15z"/>
<path d="M3060 1823 l0 -83 72 0 c66 0 74 -2 93 -26 15 -19 31 -26 57 -27 21
0 39 1 41 4 3 2 7 35 10 73 l6 68 -32 -8 c-97 -25 -206 1 -234 57 -11 21 -13
14 -13 -58z"/>
<path d="M1137 2028 c-52 -23 -54 -26 -32 -68 17 -32 49 -39 86 -20 22 12 24
36 6 78 l-13 30 -47 -20z"/>
<path d="M2295 1667 c-54 -21 -75 -37 -105 -79 -26 -36 -30 -49 -30 -110 0
-60 4 -75 28 -108 37 -53 91 -82 166 -87 56 -4 66 -2 115 29 74 45 105 101 97
176 -11 96 -51 147 -137 177 -49 18 -92 18 -134 2z m115 -57 c0 -5 -19 -10
-43 -10 -87 0 -146 -72 -134 -164 5 -37 4 -39 -9 -22 -33 45 0 151 58 186 35
21 128 28 128 10z"/>
<path d="M3675 1668 c-16 -6 -42 -19 -56 -29 -14 -10 -30 -15 -35 -11 -5 4 -6
3 -2 -2 4 -5 -3 -27 -15 -50 -26 -50 -28 -146 -5 -191 45 -86 152 -126 249
-94 115 39 169 158 120 266 -45 98 -156 146 -256 111z m145 -63 c55 -28 87
-131 59 -190 -6 -14 -7 -7 -3 25 10 90 -56 160 -150 160 -37 0 -47 3 -36 10
23 15 97 12 130 -5z"/>
<path d="M1478 1365 c-54 -51 -98 -98 -98 -103 0 -18 51 -52 77 -52 16 0 46
22 94 68 77 76 86 106 46 154 l-22 27 -97 -94z"/>
<path d="M3974 955 c3 -11 10 -39 15 -63 5 -24 11 -45 13 -47 2 -2 16 4 30 13
l27 17 -45 50 c-28 31 -43 42 -40 30z"/>
<path d="M2394 807 l-58 -54 38 -13 c21 -7 41 -8 46 -4 9 11 41 117 36 122 -2
2 -30 -21 -62 -51z"/>
<path d="M1345 5469 c-33 -56 -133 -140 -230 -195 l-65 -36 16 -36 c8 -20 30
-73 49 -117 70 -169 85 -197 103 -190 48 18 134 77 198 138 l73 68 21 -48 c12
-26 29 -66 38 -88 l16 -39 12 29 c18 41 17 80 -2 116 -8 17 -13 37 -10 45 3 8
2 13 -2 10 -5 -3 -40 66 -78 152 -38 86 -78 176 -89 199 l-20 42 -30 -50z"/>
<path d="M4712 5479 c-11 -24 -61 -140 -111 -257 l-91 -212 19 -38 20 -37 37
82 37 82 70 -65 c67 -63 180 -144 203 -144 10 0 161 347 153 354 -2 2 -33 20
-69 40 -108 63 -169 115 -211 178 l-39 61 -18 -44z"/>
<path d="M606 5038 c-104 -52 -206 -122 -206 -142 0 -20 133 -306 143 -306 5
0 52 24 105 54 54 30 122 64 152 76 30 12 56 23 58 25 4 3 -137 328 -146 337
-4 3 -52 -16 -106 -44z"/>
<path d="M5319 4923 c-35 -86 -65 -160 -67 -164 -2 -4 34 -25 80 -47 46 -21
118 -60 161 -85 l78 -47 14 35 c8 18 40 91 70 160 30 70 55 128 55 129 0 2
-32 24 -71 50 -91 61 -215 126 -238 126 -14 0 -33 -36 -82 -157z"/>
<path d="M1037 4806 c-87 -36 -161 -66 -163 -69 -5 -5 131 -306 144 -319 18
-18 322 110 322 135 0 15 -133 317 -140 317 -3 0 -76 -29 -163 -64z"/>
<path d="M4897 4858 c-3 -7 -33 -76 -66 -152 -34 -77 -61 -145 -61 -153 0 -23
310 -160 323 -142 7 9 137 320 137 327 0 6 -166 74 -311 127 -9 3 -19 0 -22
-7z"/>
<path d="M1434 4604 c-38 -26 -72 -50 -76 -53 -5 -4 24 -80 62 -169 39 -89 70
-166 70 -171 0 -15 -69 -51 -193 -101 -65 -27 -121 -50 -123 -53 -3 -3 27 -80
68 -171 48 -110 78 -166 88 -166 8 1 53 13 100 29 82 26 85 28 83 57 -1 16 -8
204 -14 419 -8 287 -8 394 0 407 6 10 9 18 7 18 -2 0 -35 -21 -72 -46z"/>
<path d="M4613 4486 c-2 -222 -21 -668 -28 -688 -5 -13 2 -19 27 -26 18 -5 57
-19 86 -31 93 -37 88 -41 167 140 39 88 71 165 73 170 2 5 -5 12 -15 15 -147
51 -303 128 -303 151 0 7 29 79 65 159 36 81 65 152 65 158 0 10 -32 37 -120
102 -13 10 -15 -7 -17 -150z"/>
<path d="M461 4514 c-72 -56 -156 -156 -167 -198 -3 -13 19 -76 61 -170 44
-100 63 -156 59 -170 -11 -37 -53 -85 -144 -163 -62 -53 -87 -80 -83 -92 7
-19 125 -294 129 -299 1 -2 24 11 51 29 61 42 141 122 177 176 l28 43 -63 142
c-34 79 -62 154 -61 167 3 40 54 121 107 168 54 49 123 98 129 92 2 -2 34 -73
72 -158 38 -84 74 -155 80 -158 19 -7 316 146 311 160 -2 7 -33 79 -67 160
-50 116 -67 147 -82 147 -28 0 -153 -54 -232 -100 -38 -23 -74 -39 -80 -36 -6
2 -29 44 -51 93 -21 48 -53 119 -70 156 l-32 68 -72 -57z"/>
<path d="M5550 4523 c-12 -27 -42 -95 -67 -153 -26 -58 -49 -109 -53 -113 -4
-5 -49 14 -101 42 -88 47 -228 106 -235 99 -1 -2 -19 -41 -38 -86 -20 -45 -52
-118 -71 -163 l-35 -80 53 -21 c28 -12 102 -47 163 -79 l111 -57 68 157 c37
86 72 160 76 165 9 10 70 -34 142 -103 50 -48 97 -125 97 -161 0 -11 -25 -77
-56 -146 -53 -117 -56 -127 -43 -152 8 -15 63 -77 123 -139 l109 -112 70 160
70 160 -44 37 c-51 43 -107 98 -166 164 l-43 46 72 161 71 160 -32 50 c-32 50
-162 180 -200 200 -18 10 -22 6 -41 -36z"/>
<path d="M0 2002 l0 -2002 3010 0 3010 0 -1 1903 c0 1613 -2 1897 -14 1872
-13 -28 -27 -63 -30 -75 0 -3 -10 -25 -21 -50 -11 -25 -42 -97 -70 -160 -27
-63 -51 -117 -54 -120 -5 -5 -42 -82 -43 -90 0 -3 -11 -28 -23 -56 -21 -47
-23 -69 -25 -240 -3 -282 -30 -509 -89 -737 -17 -65 -37 -135 -46 -155 -8 -20
-26 -68 -39 -107 -82 -248 -266 -572 -454 -796 -332 -397 -723 -666 -1231
-846 -183 -65 -480 -120 -688 -128 -57 -3 -107 -7 -112 -10 -26 -16 -518 47
-675 86 -101 26 -303 94 -375 126 -181 83 -255 121 -345 175 -94 58 -204 133
-215 148 -3 4 -12 11 -21 16 -50 28 -294 248 -356 320 -23 27 -56 65 -73 84
-76 85 -200 260 -287 405 -34 58 -111 216 -148 307 -15 35 -32 77 -39 93 -7
17 -21 57 -31 90 -10 33 -24 77 -31 97 -20 56 -60 239 -78 358 -25 166 -36
312 -36 492 0 184 0 185 -79 352 -38 80 -81 174 -106 231 -7 17 -21 48 -30 70
-75 167 -110 247 -127 290 -11 28 -22 52 -24 54 -2 2 -4 -896 -4 -1997z"/>
<path d="M5211 3735 c-39 -89 -71 -167 -71 -172 0 -5 13 -16 28 -25 42 -25
138 -119 161 -158 12 -19 21 -44 21 -55 0 -11 -22 -56 -49 -100 -61 -98 -68
-123 -46 -164 9 -17 13 -37 9 -44 -4 -7 -4 -9 1 -5 5 5 34 -16 65 -46 48 -46
180 -126 209 -126 8 0 37 63 90 197 l20 52 -63 35 c-67 38 -164 134 -194 192
l-18 35 74 152 75 151 -19 34 c-23 42 -108 129 -173 176 l-49 34 -71 -163z"/>
<path d="M785 3868 c-75 -54 -135 -111 -165 -158 l-32 -50 21 -49 c11 -27 43
-96 71 -154 28 -58 50 -119 50 -137 0 -42 -77 -118 -188 -183 -45 -27 -82 -52
-82 -57 0 -8 98 -240 104 -247 5 -6 195 113 224 141 38 35 72 95 72 127 0 18
-45 115 -60 129 -19 17 -40 63 -40 85 0 54 73 145 180 226 41 31 45 13 -48
214 -33 71 -64 131 -69 132 -4 1 -21 -7 -38 -19z"/>
</g>
</svg>
